<svg width="20" height="20" viewBox="0 0 20 20" fill="none" xmlns="http://www.w3.org/2000/svg">
<path d="M2.02841 2.69016C0.789058 3.92951 0.225173 5.85182 1.29442 7.525C2.17796 8.90758 3.72894 10.9224 6.4466 13.6401C9.16426 16.3577 11.1791 17.9087 12.5617 18.7922C14.2348 19.8615 16.1571 19.2976 17.3965 18.0582L18.718 16.7368C19.7431 15.7117 19.7431 14.0496 18.718 13.0245L16.9848 11.2913C16.2132 10.5197 15.02 10.3614 14.0739 10.9052C13.5118 11.2282 12.8028 11.1342 12.3444 10.6757L9.41093 7.74226C8.95248 7.28381 8.85843 6.57487 9.1815 6.01274C9.72524 5.06665 9.56695 3.87347 8.79535 3.10187L7.06218 1.3687C6.03705 0.343571 4.37499 0.343573 3.34987 1.3687L2.02841 2.69016ZM2.76903 6.58265C2.26149 5.78844 2.43466 4.75878 3.26585 3.92759L4.58731 2.60614C4.92901 2.26443 5.48304 2.26443 5.82474 2.60613L7.55791 4.3393C7.77035 4.55174 7.81393 4.88026 7.66423 5.14074C6.94713 6.38848 7.15588 7.96208 8.1735 8.9797L11.107 11.9132C12.1246 12.9308 13.6982 13.1395 14.9459 12.4224C15.2064 12.2727 15.5349 12.3163 15.7474 12.5287L17.4805 14.2619C17.8222 14.6036 17.8222 15.1576 17.4805 15.4993L16.1591 16.8208C15.3279 17.652 14.2982 17.8252 13.504 17.3176C12.2514 16.5171 10.3341 15.0527 7.68404 12.4026C5.03396 9.75253 3.56954 7.8353 2.76903 6.58265ZM12.25 1.62501C12.25 1.14177 12.6417 0.750014 13.125 0.750014C16.5077 0.750014 19.25 3.49227 19.25 6.87501C19.25 7.35826 18.8582 7.75001 18.375 7.75001C17.8917 7.75001 17.5 7.35826 17.5 6.87501C17.5 4.45877 15.5412 2.50001 13.125 2.50001C12.6417 2.50001 12.25 2.10826 12.25 1.62501ZM12.25 5.12501C12.25 4.64177 12.6417 4.25001 13.125 4.25001C14.5747 4.25001 15.75 5.42527 15.75 6.87501C15.75 7.35826 15.3582 7.75001 14.875 7.75001C14.3917 7.75001 14 7.35826 14 6.87501C14 6.39177 13.6082 6.00001 13.125 6.00001C12.6417 6.00001 12.25 5.60826 12.25 5.12501Z" fill="#fff"/>
</svg>
