<svg width="26" height="26" viewBox="0 0 26 26" fill="none" xmlns="http://www.w3.org/2000/svg">
<path d="M22.75 8.39584H3.25C2.80583 8.39584 2.4375 8.02751 2.4375 7.58334C2.4375 7.13918 2.80583 6.77084 3.25 6.77084H22.75C23.1942 6.77084 23.5625 7.13918 23.5625 7.58334C23.5625 8.02751 23.1942 8.39584 22.75 8.39584Z" fill="white"/>
<path d="M22.75 13.8125H3.25C2.80583 13.8125 2.4375 13.4442 2.4375 13C2.4375 12.5558 2.80583 12.1875 3.25 12.1875H22.75C23.1942 12.1875 23.5625 12.5558 23.5625 13C23.5625 13.4442 23.1942 13.8125 22.75 13.8125Z" fill="white"/>
<path d="M22.75 19.2292H3.25C2.80583 19.2292 2.4375 18.8608 2.4375 18.4167C2.4375 17.9725 2.80583 17.6042 3.25 17.6042H22.75C23.1942 17.6042 23.5625 17.9725 23.5625 18.4167C23.5625 18.8608 23.1942 19.2292 22.75 19.2292Z" fill="white"/>
</svg>
