<svg width="21" height="21" viewBox="0 0 21 21" fill="none" xmlns="http://www.w3.org/2000/svg">
<path d="M19.7971 1.06716C20.0536 1.27266 20.1733 1.60455 20.107 1.92646L17.0445 16.8015C16.9897 17.0677 16.8142 17.2934 16.5697 17.4121C16.3252 17.5309 16.0393 17.5292 15.7962 17.4076L8.79619 13.9076C8.55379 13.7864 8.38123 13.5598 8.32894 13.2938C8.27665 13.0279 8.35053 12.7528 8.529 12.5488L11.5915 9.04882C11.9097 8.68514 12.4625 8.64828 12.8262 8.96651C13.1899 9.28473 13.2267 9.83752 12.9085 10.2012L10.5918 12.8489L15.5601 15.3331L18.0477 3.25055L3.78978 9.66662L6.51631 11.0299C6.81275 11.1781 7 11.4811 7 11.8125V17.3492L8.47067 15.2482C8.7478 14.8523 9.29339 14.7561 9.68928 15.0332C10.0852 15.3103 10.1815 15.8559 9.90433 16.2518L6.84183 20.6268C6.62282 20.9397 6.22618 21.0743 5.86194 20.9595C5.4977 20.8447 5.25 20.5069 5.25 20.125V12.3533L1.35869 10.4076C1.05649 10.2565 0.868292 9.94496 0.875183 9.60716C0.882074 9.26937 1.08283 8.96573 1.39093 8.82708L18.8909 0.952078C19.1906 0.81721 19.5406 0.861659 19.7971 1.06716Z" fill="#FFF"/>
</svg>
