<svg width="22" height="23" viewBox="0 0 22 23" fill="none" xmlns="http://www.w3.org/2000/svg">
<path d="M10.2978 0.769421C8.48943 0.887711 6.59061 1.54338 5.09031 2.56743C3.50629 3.64894 2.25045 5.10897 1.43667 6.81235C0.991271 7.74515 0.713313 8.62387 0.522426 9.70538C0.378424 10.5165 0.348284 11.74 0.448751 12.6795C0.582706 13.9435 1.0415 15.4577 1.66105 16.6946L1.83854 17.0427L1.42663 18.2831C1.1989 18.9658 0.786989 20.2095 0.509031 21.0477C0.227724 21.8892 0 22.599 0 22.6328C0 22.6632 0.0435355 22.7071 0.0971177 22.7274C0.184189 22.7612 0.194235 22.7747 0.177491 22.8795C0.157398 22.9877 0.160747 22.9944 0.237771 22.9708C0.375075 22.9268 3.37233 21.9636 4.63821 21.5513C5.30129 21.3384 5.8706 21.1626 5.90409 21.1626C5.93423 21.1626 6.07823 21.2201 6.22223 21.2944C7.44793 21.9163 8.75399 22.2881 10.1438 22.4165C10.693 22.4638 11.8115 22.4401 12.3507 22.3624C15.5455 21.9163 18.2648 20.1352 19.9393 17.401C20.4851 16.5087 21.0042 15.265 21.2822 14.1835C21.5467 13.1459 21.674 11.8583 21.6037 10.8646C21.4228 8.22507 20.4115 5.88631 18.6533 4.04774C16.9487 2.26663 14.7786 1.16485 12.3072 0.830256C11.9455 0.78294 10.693 0.742384 10.2978 0.769421ZM11.6072 3.08114C12.8028 3.17916 13.784 3.44615 14.8188 3.95649C16.222 4.65271 17.3975 5.69366 18.2682 7.01851C18.938 8.0358 19.3499 9.13083 19.5106 10.3272C19.5876 10.895 19.5876 12.0441 19.5106 12.6255C18.9648 16.7115 15.6226 19.8614 11.5671 20.1183C10.1371 20.2062 8.80757 19.9696 7.50821 19.395C7.14988 19.2362 6.55712 18.9117 6.37293 18.7765C6.316 18.7326 6.24233 18.6954 6.20884 18.6954C6.1787 18.6954 5.46538 18.9151 4.62816 19.1855C3.79094 19.4559 3.10107 19.6755 3.09772 19.6688C3.09102 19.662 3.30535 19.003 3.56991 18.2054C3.83448 17.4044 4.05215 16.7115 4.05215 16.6575C4.05215 16.6034 3.99187 16.4783 3.9048 16.3533C2.50497 14.3288 2.04952 11.5338 2.72934 9.16463C2.88004 8.65091 3.00395 8.3366 3.24842 7.84654C3.9182 6.52507 4.93961 5.37259 6.19544 4.52766C7.77947 3.45967 9.75866 2.93244 11.6072 3.08114Z" fill="#fff"/>
<path d="M6.78406 6.08189C6.70704 6.10555 6.59653 6.15962 6.5329 6.19679C6.3621 6.30494 5.86647 6.8389 5.71242 7.08223C5.22013 7.85614 5.10962 8.8869 5.40432 9.894C5.6287 10.6544 5.90331 11.2357 6.40564 12.0197C7.04193 13.0066 7.45384 13.5405 8.11357 14.2266C9.10484 15.2573 9.93871 15.8352 11.218 16.3726C12.1624 16.7714 12.8589 16.9978 13.2508 17.0383C13.522 17.0654 14.1148 16.9707 14.4631 16.8423C14.9453 16.6666 15.4979 16.2746 15.7122 15.9569C15.9265 15.6324 16.1475 14.8991 16.1743 14.4124L16.1944 14.0914L16.0906 13.9697C16.0169 13.8886 15.7155 13.7061 15.106 13.3749C13.6593 12.5909 13.4751 12.5165 13.2474 12.6382C13.1905 12.6652 12.9762 12.8849 12.7752 13.1215C12.1791 13.821 12.0552 13.9427 11.9547 13.9427C11.8275 13.9427 10.9936 13.5135 10.6051 13.2499C10.153 12.939 9.85834 12.6889 9.48661 12.3002C9.04456 11.8372 8.56567 11.1748 8.29776 10.6578L8.23748 10.5361L8.4786 10.2691C8.79674 9.9278 8.92735 9.72165 9.05461 9.36341C9.18521 8.99843 9.17852 8.8869 8.98763 8.38335C8.81684 7.93387 8.67953 7.56212 8.44176 6.91663C8.24753 6.38605 8.10352 6.16976 7.90259 6.10555C7.7117 6.04809 6.94146 6.03119 6.78406 6.08189Z" fill="#fff"/>
</svg>
